<?xml version="1.0" encoding="UTF-8"?>
<svg id="_圖層_2" data-name="圖層 2" xmlns="http://www.w3.org/2000/svg" version="1.1" viewBox="0 0 439.2 107.4">
  <defs>
    <style>
      .cls-1 {
        fill: #0087dc;
      }

      .cls-1, .cls-2 {
        stroke-width: 0px;
      }

      .cls-2 {
        fill: #fff;
      }
    </style>
  </defs>
  <g>
    <path class="cls-1" d="M297.63,103.51c.11-.11.17-.26.17-.41v-8.92c0-.16-.06-.31-.17-.42-.11-.11-.26-.17-.41-.17h-9.01l13.86-19.93v29.44c0,.16.07.31.18.42.11.11.26.17.41.17h12.91c.16,0,.3-.06.41-.17.11-.11.17-.26.17-.41v-37.94c0-6.12-4.96-11.07-11.07-11.07-2.72,0-5.2.98-7.12,2.59-.72.6-1.64,1.55-2.33,2.55-1.2,1.74-6.77,9.63-12.03,17.06-5.26,7.44-10.21,14.42-10.22,14.44-.95,1.34-1.49,2.97-1.49,4.73,0,4.55,3.68,8.24,8.24,8.24h17.09c.16,0,.31-.06.41-.17Z"/>
    <path class="cls-1" d="M206.17,55h-40.01c-.16,0-.31.06-.41.17-.11.11-.18.26-.18.42v42.4c0,1.79.9,3.2,2.11,4.18,1.22.98,2.75,1.5,3.98,1.51h32.45c.67-.01,1.31-.36,1.82-.83.26-.24.45-.49.57-.72.07-.11.12-.22.16-.31.04-.12.08-.14.09-.36v-7.4c0-.16-.07-.31-.17-.41-.11-.11-.26-.18-.41-.18h-26.34v-10.63h22.7c.16,0,.31-.07.42-.17.11-.11.17-.26.17-.41v-8.96c0-.16-.06-.3-.17-.42-.11-.11-.26-.17-.42-.17h-22.62v-7.42h26.25c.16,0,.3-.06.41-.17.11-.11.17-.26.17-.42v-9.11c0-.16-.07-.31-.17-.42-.11-.11-.26-.17-.41-.17Z"/>
    <path class="cls-1" d="M280.88,64.98c.1-.11.17-.26.17-.41v-8.94c0-.32-.26-.58-.58-.58l-41.65-.05c-.15,0-.3.06-.41.17-.11.11-.17.26-.17.41v9.03c0,.15.06.31.17.41.11.11.27.18.41.18h14.04v37.78c0,.16.06.31.17.42.11.11.26.17.42.17h10.63c.54-.01,1.15-.19,1.65-.62.47-.4.86-1.09.85-2.06v-35.74h13.88c.15,0,.3-.07.41-.18Z"/>
    <path class="cls-1" d="M162.99,95.42c0-1.76-.55-3.39-1.49-4.73-.01-.01-4.95-7-10.22-14.44-5.26-7.44-10.83-15.31-12.03-17.06,0,0-.01,0-.01,0-.68-1-1.59-1.95-2.32-2.55-1.92-1.61-4.41-2.59-7.12-2.59-6.12,0-11.08,4.96-11.08,11.08v37.94c0,.16.06.31.18.42.1.11.26.17.41.17h12.91c.16,0,.31-.06.41-.17.11-.11.18-.26.18-.42v-29.45l13.86,19.94h-9c-.15,0-.31.06-.42.17-.11.11-.17.27-.17.41v8.92c0,.16.06.31.17.42.12.11.27.17.42.17h17.09c4.55,0,8.24-3.69,8.24-8.24Z"/>
    <path class="cls-1" d="M248.58,94.17c0-.16-.06-.3-.17-.41-.11-.11-.26-.18-.42-.18h-22.99v-37.96c0-.16-.06-.31-.17-.41-.11-.11-.26-.18-.41-.18h-12.65c-.33,0-.59.27-.59.59v42.2c0,2.14.92,3.59,2.1,4.52,1.19.93,2.65,1.34,3.74,1.34h29.3c.63-.02,1.14-.4,1.59-.95.43-.56.66-1.16.68-1.66h0s0-.02,0-.02c0-.84,0-5.03,0-6.89Z"/>
  </g>
  <g>
    <path class="cls-1" d="M391.23,67.85l.03.11h7.23l-1.8-8.04-.02-.06c-.13-.6-.42-1.15-.81-1.6-.65-.81-1.64-1.33-2.76-1.33h-4.41l2.45,10.93h.1Z"/>
    <path class="cls-1" d="M403.06,94.09h8.83l5.86-21.76,5.2,19.25c.72,1.47,2.27,2.51,4.08,2.51h7.67v-5.06h-3.63l-4.83-17.97h7.59v-6.46h-13.99l2.55-9.52h-8.85l-2.55,9.52h-9.09v6.46h7.35l-6.18,23.03Z"/>
    <path class="cls-1" d="M396.84,97.18c1.29-8.5,3.42-22.53,3.42-22.57-.08-1.89-1.62-3.41-3.54-3.41h-8.46v5.6h4.75l-3.83,22.69c-.02.16-.05.32-.05.5v.02c.02,1.95,1.61,3.54,3.55,3.54h40.65c.96,0,1.74-.79,1.74-1.75v-4.61h-38.23Z"/>
    <path class="cls-1" d="M338.33,99.26c.05,2.31,2.02,4.16,4.45,4.16h37.07c1.01,0,1.83-.79,1.83-1.75v-20.97h-43.35v18.56ZM347.67,87.14h24.6v9.94h-24.6v-9.94Z"/>
    <path class="cls-1" d="M381.34,64.09l-.02-.06c-.35-1.59-1.76-2.79-3.45-2.79h-6.16l1.95,8.45h-26.39l10.6-14.46h-10.94s-6.27,8.96-8.66,12.46c-3.51,5.16.19,8.2,3.35,8.2h37.98c1.96,0,3.55-1.59,3.55-3.55,0-.26-.04-.51-.09-.75l-1.73-7.49Z"/>
  </g>
  <g>
    <path class="cls-2" d="M74.96,74.15c1.08-2.54,1.62-5.07,1.62-7.48,0-3.46-1.16-6.7-3.47-9.02-2.31-2.33-5.68-3.64-9.63-3.63h-.13c-8.51.09-17.17,4.87-23.89,11.1-6.7,6.3-11.59,14.04-11.66,21.2,0,.21,0,.4.01.6.1,2.42,1.05,5.2,3.15,7.53,2.09,2.33,5.39,4.09,9.71,4.28.3.01.61.02.92.02,5.82-.02,12.1-2.59,17.86-6.59.05-.03.09-.07.14-.1,1.85,1.19,4.05,1.88,6.42,1.88,6.58,0,11.92-5.34,11.92-11.93,0-3.01-1.13-5.76-2.97-7.86ZM71.3,71.33c-1.59-.79-3.38-1.25-5.29-1.25-6.59,0-11.93,5.34-11.93,11.92,0,2.58.83,4.96,2.22,6.91-5.05,3.4-10.43,5.4-14.72,5.39-.24,0-.47,0-.71-.02-3.28-.17-5.29-1.35-6.64-2.82-1.34-1.47-1.96-3.36-2.01-4.75,0-.15-.01-.29-.01-.4-.08-4.99,4.07-12.27,10.25-17.95,6.13-5.73,14.12-9.91,20.91-9.91h.09c3.02.01,5.09.93,6.49,2.33,1.39,1.4,2.18,3.39,2.19,5.9,0,1.42-.27,3-.85,4.66Z"/>
    <g>
      <path class="cls-1" d="M56.3,19.92L5.34,103.68h101.67L56.3,19.92ZM39.46,65.11c6.72-6.23,15.38-11,23.89-11.1h.13c3.95-.01,7.32,1.3,9.63,3.63,2.32,2.33,3.48,5.56,3.47,9.02,0,2.4-.54,4.93-1.62,7.48,1.85,2.1,2.97,4.85,2.97,7.86,0,6.59-5.34,11.93-11.92,11.93-2.37,0-4.56-.7-6.42-1.88-.05.03-.09.07-.14.1-5.76,4-12.04,6.57-17.86,6.59-.31,0-.62,0-.92-.02-4.32-.19-7.62-1.94-9.71-4.28-2.1-2.33-3.05-5.11-3.15-7.53-.01-.19-.01-.39-.01-.6.07-7.16,4.96-14.9,11.66-21.2Z"/>
      <path class="cls-1" d="M34.25,91.47c1.35,1.47,3.36,2.65,6.64,2.82.24.01.47.02.71.02,4.29.02,9.67-1.99,14.72-5.39-1.4-1.95-2.22-4.33-2.22-6.91,0-6.58,5.34-11.92,11.93-11.92,1.9,0,3.69.46,5.29,1.25.58-1.66.85-3.24.85-4.66,0-2.51-.8-4.5-2.19-5.9-1.39-1.39-3.46-2.31-6.49-2.33h-.09c-6.79,0-14.79,4.17-20.91,9.91-6.18,5.69-10.33,12.96-10.25,17.95,0,.12,0,.25.01.4.05,1.39.67,3.28,2.01,4.75Z"/>
    </g>
  </g>
</svg>