<?xml version="1.0" encoding="UTF-8"?>
<svg version="1.1" xmlns="http://www.w3.org/2000/svg" width="2672" height="754">
<path d="M0 0 C0.92198181 -0.0010675 1.84396362 -0.00213501 2.79388428 -0.00323486 C25.71476804 0.03497902 58.92214604 2.41603221 76.60546875 19.33203125 C77.27191406 20.02683594 77.93835938 20.72164062 78.625 21.4375 C80.46354526 22.97718159 82.31862782 24.4972742 84.1875 26 C90.80827703 31.32716523 90.80827703 31.32716523 92.625 33.4375 C92.625 34.0975 92.625 34.7575 92.625 35.4375 C93.615 35.7675 94.605 36.0975 95.625 36.4375 C107.77947697 51.66068155 114.80281131 72.58497315 114.72265625 91.90234375 C114.72053383 92.91960289 114.72053383 92.91960289 114.71836853 93.95741272 C114.71282745 96.09665578 114.70028653 98.23578925 114.6875 100.375 C114.68247736 101.83658702 114.6779158 103.29817569 114.67382812 104.75976562 C114.66287745 108.31904526 114.64565445 111.87826191 114.625 115.4375 C115.93210937 115.59605469 117.23921875 115.75460937 118.5859375 115.91796875 C133.8031972 117.86526215 148.78907458 120.51953729 162.625 127.4375 C162.625 128.0975 162.625 128.7575 162.625 129.4375 C163.49511719 129.69273437 164.36523438 129.94796875 165.26171875 130.2109375 C177.6820109 134.7405214 189.49695696 145.39017927 196.625 156.4375 C196.625 157.0975 196.625 157.7575 196.625 158.4375 C197.285 158.4375 197.945 158.4375 198.625 158.4375 C217.04839754 190.76787967 216.68983408 225.70717657 207.25 261 C203.8022849 273.44430849 199.57279101 284.96443865 193.625 296.4375 C192.72547689 298.24864743 191.82614658 300.05989262 190.9296875 301.87255859 C187.47904759 308.83666995 183.9273639 315.74475547 180.3125 322.625 C179.89202393 323.42671631 179.47154785 324.22843262 179.03833008 325.05444336 C173.47737908 335.59374824 173.47737908 335.59374824 170.6953125 338.34765625 C168.14911254 340.91787697 166.37493843 343.80884447 164.5 346.875 C159.97769606 354.1011254 154.90370591 360.74859828 149.625 367.4375 C149.07585938 368.21867187 148.52671875 368.99984375 147.9609375 369.8046875 C147.52007813 370.34351563 147.07921875 370.88234375 146.625 371.4375 C145.965 371.4375 145.305 371.4375 144.625 371.4375 C144.625 372.4275 144.625 373.4175 144.625 374.4375 C143.54764308 375.58436381 142.45481903 376.71883876 141.30859375 377.796875 C137.02057115 381.97545851 133.06954027 386.56367664 129.19165039 391.12255859 C124.18729261 396.96764848 118.81810009 402.43055835 113.38012695 407.86767578 C111.79283666 409.4571909 110.21376447 411.05459657 108.63476562 412.65234375 C107.62548793 413.66454926 106.61573996 414.67628611 105.60546875 415.6875 C104.69692139 416.60015625 103.78837402 417.5128125 102.85229492 418.453125 C100.625 420.4375 100.625 420.4375 98.625 420.4375 C98.625 421.0975 98.625 421.7575 98.625 422.4375 C96.83203125 423.98828125 96.83203125 423.98828125 94.4375 425.75 C90.84316716 428.40253419 87.76822981 431.26552114 84.625 434.4375 C77.65356227 440.66164681 70.38959083 446.48938264 62.9375 452.125 C62.24229248 452.65424072 61.54708496 453.18348145 60.83081055 453.72875977 C55.86837695 457.4375 55.86837695 457.4375 53.625 457.4375 C53.295 458.4275 52.965 459.4175 52.625 460.4375 C50.97705078 461.78100586 50.97705078 461.78100586 48.8203125 463.15234375 C48.01819336 463.66796875 47.21607422 464.18359375 46.38964844 464.71484375 C45.51856445 465.26269531 44.64748047 465.81054688 43.75 466.375 C42.85829102 466.94476562 41.96658203 467.51453125 41.04785156 468.1015625 C38.24561354 469.88883997 35.43593795 471.66394363 32.625 473.4375 C30.8669564 474.55302129 29.1091364 475.66889507 27.3515625 476.78515625 C23.47460163 479.24325247 19.593919 481.69519607 15.703125 484.13134766 C14.35518599 484.97856026 13.01116106 485.83204498 11.671875 486.69287109 C6.30857885 490.11656796 0.76751823 493.1254384 -4.875 496.0625 C-5.86604736 496.5788501 -6.85709473 497.0952002 -7.87817383 497.62719727 C-39.7086834 514.03593864 -73.15373494 527.47150422 -108.375 534.4375 C-109.41640137 534.64632812 -110.45780273 534.85515625 -111.53076172 535.0703125 C-126.68961589 537.98007585 -141.6077093 538.8208983 -157 538.875 C-157.83250275 538.88126404 -158.66500549 538.88752808 -159.5227356 538.89398193 C-187.21394654 539.02606155 -218.95997288 533.3886293 -240 513.9375 C-241.81768288 512.12995761 -243.61119732 510.29765609 -245.375 508.4375 C-246.19355469 507.61378906 -247.01210938 506.79007813 -247.85546875 505.94140625 C-254.78101355 498.69104528 -264.375 487.01236891 -264.375 476.4375 C-265.035 476.4375 -265.695 476.4375 -266.375 476.4375 C-267.02535371 473.91775747 -267.67037493 471.39684065 -268.3125 468.875 C-268.58610352 467.81829102 -268.58610352 467.81829102 -268.86523438 466.74023438 C-269.04248047 466.04091797 -269.21972656 465.34160156 -269.40234375 464.62109375 C-269.56468506 463.98743896 -269.72702637 463.35378418 -269.89428711 462.70092773 C-271.05185897 457.25052211 -271.49739134 451.97555058 -271.47265625 446.41015625 C-271.46782227 444.48139648 -271.46782227 444.48139648 -271.46289062 442.51367188 C-271.45453802 441.17578055 -271.44607311 439.83788993 -271.4375 438.5 C-271.43247659 437.13476726 -271.42791517 435.76953274 -271.42382812 434.40429688 C-271.41208851 431.08198543 -271.39566679 427.75976592 -271.375 424.4375 C-271.95241943 424.34251221 -272.52983887 424.24752441 -273.12475586 424.1496582 C-292.32080273 420.94619787 -309.25819792 416.86357304 -326.375 407.4375 C-327.34953125 406.90382813 -328.3240625 406.37015625 -329.328125 405.8203125 C-330.00359375 405.36398437 -330.6790625 404.90765625 -331.375 404.4375 C-331.375 403.7775 -331.375 403.1175 -331.375 402.4375 C-331.93316406 402.19515625 -332.49132812 401.9528125 -333.06640625 401.703125 C-339.94353558 397.93292212 -345.55373321 391.53498447 -350.375 385.4375 C-350.99761719 384.8703125 -351.62023437 384.303125 -352.26171875 383.71875 C-367.01927848 367.78822342 -370.09407983 340.08498977 -369.61328125 319.5546875 C-368.18646401 283.10407575 -355.41284763 248.72473098 -336.73681641 217.71630859 C-334.72210942 214.34497926 -332.80009489 210.92300868 -330.875 207.5 C-328.53535887 203.3594509 -326.17464818 199.28701625 -323.375 195.4375 C-322.715 195.4375 -322.055 195.4375 -321.375 195.4375 C-321.313125 194.715625 -321.25125 193.99375 -321.1875 193.25 C-320.11493919 189.5372895 -318.13710101 188.13822099 -315.375 185.4375 C-314.44010278 184.08577728 -313.5363265 182.71225783 -312.65625 181.32421875 C-309.4453717 176.42603404 -305.83596682 171.9718161 -302.0625 167.5 C-300.81473884 166.01311641 -299.56856243 164.52490104 -298.32421875 163.03515625 C-297.78112061 162.39070557 -297.23802246 161.74625488 -296.6784668 161.08227539 C-295.29995379 159.45826789 -295.29995379 159.45826789 -294.375 157.4375 C-293.715 157.4375 -293.055 157.4375 -292.375 157.4375 C-292.10743896 156.848479 -291.83987793 156.25945801 -291.56420898 155.65258789 C-290.35843345 153.40664222 -289.09358408 151.84381734 -287.34765625 149.99609375 C-286.72979248 149.33931641 -286.11192871 148.68253906 -285.4753418 148.00585938 C-284.46661011 146.95108398 -284.46661011 146.95108398 -283.4375 145.875 C-282.7360083 145.13701172 -282.0345166 144.39902344 -281.31176758 143.63867188 C-257.50888995 118.72097262 -257.50888995 118.72097262 -246.9453125 110.515625 C-244.49975253 108.53836375 -242.22785001 106.43924833 -239.95800781 104.2644043 C-232.05965638 96.70834724 -223.42016512 90.35236815 -214.54248047 83.99707031 C-212.60973678 82.60640049 -210.69330775 81.19756206 -208.78515625 79.7734375 C-207.80417969 79.04382813 -206.82320312 78.31421875 -205.8125 77.5625 C-204.98621094 76.94632812 -204.15992188 76.33015625 -203.30859375 75.6953125 C-201.375 74.4375 -201.375 74.4375 -199.375 74.4375 C-199.045 73.4475 -198.715 72.4575 -198.375 71.4375 C-195.92919922 69.67919922 -195.92919922 69.67919922 -192.6796875 67.7421875 C-192.10021866 67.39339035 -191.52074982 67.0445932 -190.92372131 66.68522644 C-189.03741408 65.55249851 -187.14397423 64.4323528 -185.25 63.3125 C-183.95080809 62.5364707 -182.65206163 61.75969517 -181.35375977 60.98217773 C-178.81627238 59.46390655 -176.2761791 57.95015162 -173.73388672 56.43994141 C-171.09397225 54.8661241 -168.4649352 53.27893935 -165.84765625 51.66796875 C-144.50304303 38.53653339 -121.81160512 28.48269725 -98.40942383 19.60302734 C-95.6824564 18.55559453 -92.98408904 17.45692065 -90.28515625 16.33984375 C-84.8983825 14.17841027 -79.40169056 12.55116739 -73.8125 11 C-72.73693848 10.7006958 -71.66137695 10.4013916 -70.55322266 10.09301758 C-62.83735904 7.99679058 -55.08854298 6.19872667 -47.25 4.625 C-46.28118896 4.43043213 -45.31237793 4.23586426 -44.31420898 4.03540039 C-41.33989338 3.46319393 -38.36221019 2.93803538 -35.375 2.4375 C-34.26592285 2.25131104 -33.1568457 2.06512207 -32.01416016 1.87329102 C-21.34145584 0.26061347 -10.77795292 -0.00266021 0 0 Z M-205.75 132.3125 C-206.50035522 133.03457642 -206.50035522 133.03457642 -207.26586914 133.77124023 C-214.46285525 141.09711307 -216.30125219 149.45799441 -218.07421875 159.27734375 C-218.31084732 160.53302658 -218.54747589 161.78870941 -218.79127502 163.08244324 C-219.43034407 166.47551449 -220.05456895 169.87115613 -220.67567444 173.26755524 C-221.3240941 176.80017759 -221.98556445 180.33035567 -222.64550781 183.86083984 C-223.7166215 189.60062663 -224.77922599 195.34192794 -225.83544922 201.08447266 C-227.04310587 207.64990927 -228.26509663 214.21255874 -229.49494934 220.77388 C-230.34486011 225.31001921 -231.19019366 229.84700052 -232.03384399 234.38430786 C-232.42627026 236.49408271 -232.8196338 238.60368344 -233.21395874 240.71310425 C-233.75665417 243.62300593 -234.29334308 246.53394755 -234.828125 249.4453125 C-234.98688614 250.29135544 -235.14564728 251.13739838 -235.30921936 252.00907898 C-236.01200175 255.86995594 -236.5717807 259.49294149 -236.375 263.4375 C-237.035 263.4375 -237.695 263.4375 -238.375 263.4375 C-238.58496109 264.55803268 -238.79492218 265.67856537 -239.01124573 266.83305359 C-241.02484156 277.57909425 -243.03878559 288.32506961 -245.0530405 299.07098675 C-246.28895791 305.66459309 -247.52462293 312.25824665 -248.76006508 318.85194206 C-249.36049873 322.05612087 -249.9611573 325.26025745 -250.56185913 328.46438599 C-251.35532187 332.69671969 -252.14787034 336.92922323 -252.93984985 341.16183472 C-254.77987065 350.9880916 -256.63332911 360.81134413 -258.52685547 370.62744141 C-258.8591383 372.35673753 -259.1913299 374.08605119 -259.52342224 375.81538391 C-260.13173797 378.98307885 -260.74695306 382.14932045 -261.36634827 385.31486511 C-261.63636323 386.71872566 -261.9061099 388.12263786 -262.17553711 389.52661133 C-262.40873154 390.7250618 -262.64192596 391.92351227 -262.88218689 393.15827942 C-263.35575396 396.3094352 -263.46784556 399.25695832 -263.375 402.4375 C-264.035 402.4375 -264.695 402.4375 -265.375 402.4375 C-265.87833542 405.04106241 -266.37779378 407.64526651 -266.875 410.25 C-267.01808594 410.98798828 -267.16117187 411.72597656 -267.30859375 412.48632812 C-267.88426281 415.51544391 -268.375 418.346696 -268.375 421.4375 C-260.10735889 421.53073215 -251.83994233 421.60153168 -243.57190323 421.64474869 C-239.73150129 421.6655048 -235.89146253 421.69359877 -232.05126953 421.73925781 C-228.33592987 421.78314916 -224.62093654 421.80672681 -220.90535736 421.81700897 C-219.4973481 421.82432366 -218.08935491 421.83860434 -216.68149567 421.86042023 C-201.79343282 422.08166453 -188.87010483 418.42571244 -177.625 408.3125 C-170.32633078 400.30777498 -167.41302044 390.28294616 -165.6015625 379.84765625 C-165.38809174 378.70010361 -165.17462097 377.55255096 -164.9546814 376.370224 C-164.2860595 372.74969642 -163.64320895 369.12511794 -163 365.5 C-162.54714409 363.04332965 -162.09273004 360.58694598 -161.63671875 358.13085938 C-161.20692111 355.78671682 -160.77848662 353.44232384 -160.3515625 351.09765625 C-160.0516893 349.45386742 -160.0516893 349.45386742 -159.74575806 347.77687073 C-159.56491669 346.75488083 -159.38407532 345.73289093 -159.19775391 344.67993164 C-159.03820221 343.78568985 -158.87865051 342.89144806 -158.71426392 341.97010803 C-158.37356359 339.42677716 -158.31433756 337.00020906 -158.375 334.4375 C-157.715 334.1075 -157.055 333.7775 -156.375 333.4375 C-155.75921535 331.1151517 -155.75921535 331.1151517 -155.375 328.4375 C-155.21636475 327.64021484 -155.05772949 326.84292969 -154.89428711 326.02148438 C-154.36214456 323.32776032 -153.83708273 320.63270596 -153.3125 317.9375 C-153.12623047 317.00035156 -152.93996094 316.06320312 -152.74804688 315.09765625 C-152.57208984 314.18886719 -152.39613281 313.28007813 -152.21484375 312.34375 C-152.05363037 311.52197266 -151.89241699 310.70019531 -151.72631836 309.85351562 C-151.36178575 307.3466256 -151.35135464 304.96707699 -151.375 302.4375 C-150.16104443 302.44303076 -150.16104443 302.44303076 -148.92256451 302.44867325 C-129.19903612 302.53714343 -109.47554209 302.60326751 -89.7518568 302.64474869 C-80.21348618 302.66534365 -70.6752483 302.69340544 -61.13696289 302.73925781 C-52.82004543 302.77921966 -44.50322413 302.80495508 -36.18621331 302.81385398 C-31.78541517 302.81905295 -27.38489206 302.83120798 -22.98418236 302.86042023 C-18.83502465 302.88773735 -14.68625311 302.89591239 -10.53701401 302.88993073 C-9.02097151 302.89102372 -7.50491498 302.89888019 -5.98895073 302.9143219 C5.4186622 303.02473988 15.72372258 302.08317456 24.3125 293.8125 C25.14136719 293.03648437 25.97023438 292.26046875 26.82421875 291.4609375 C28.84660376 289.63994796 28.84660376 289.63994796 28.625 287.4375 C29.285 287.4375 29.945 287.4375 30.625 287.4375 C30.74875 286.633125 30.8725 285.82875 31 285 C31.309375 283.7315625 31.309375 283.7315625 31.625 282.4375 C32.285 282.1075 32.945 281.7775 33.625 281.4375 C36.6259665 273.9803038 37.98128833 266.18044977 39.41479492 258.30639648 C39.81505827 256.11096798 40.22612801 253.91776 40.63867188 251.72460938 C42.10678855 244.13375419 42.10678855 244.13375419 42.625 236.4375 C-17.105 236.4375 -76.835 236.4375 -138.375 236.4375 C-129.375 190.4375 -129.375 190.4375 -127.375 184.4375 C-127.375 183.7775 -127.375 183.1175 -127.375 182.4375 C-126.33470013 182.44118717 -125.29440025 182.44487434 -124.22257614 182.44867325 C-98.88236994 182.53756405 -73.54218402 182.60324694 -48.20185471 182.64474869 C-35.94733887 182.66535328 -23.69292618 182.69343376 -11.43847656 182.73925781 C-0.75457858 182.77918985 9.92924467 182.80494809 20.61321521 182.81385398 C26.26766128 182.81905791 31.92189364 182.83124538 37.57627106 182.86042023 C42.90486429 182.88768983 48.23315696 182.89592168 53.56181335 182.88993073 C55.51120897 182.89102581 57.46061525 182.8989105 59.40995026 182.9143219 C72.79496318 183.01489997 84.9582494 182.58027881 95.67382812 173.46289062 C102.13053479 166.7605835 104.67664434 159.03777888 106.25 150.0625 C106.42789062 149.13050781 106.60578125 148.19851563 106.7890625 147.23828125 C107.16438374 145.27045113 107.53250979 143.30123519 107.89346313 141.33071899 C108.79195986 136.54894421 109.74625437 131.77936009 110.70458984 127.00927734 C110.8896257 126.08628342 111.07466156 125.16328949 111.26530457 124.21232605 C111.71810953 121.95396471 112.17135166 119.69569205 112.625 117.4375 C76.02940437 117.36877312 39.43382009 117.31594039 2.83817317 117.28430401 C-1.48622125 117.28055207 -5.81061554 117.27666909 -10.13500977 117.27270508 C-10.9958874 117.27191815 -11.85676503 117.27113122 -12.74372987 117.27032044 C-26.66709857 117.25728082 -40.59042996 117.23363496 -54.51377656 117.20604161 C-68.80962389 117.17794717 -83.10545173 117.16131521 -97.40132552 117.15523452 C-106.21648578 117.15112644 -115.03154056 117.13817028 -123.84666834 117.1137506 C-129.89864109 117.09784352 -135.95055964 117.09311085 -142.00255176 117.09699587 C-145.48971837 117.09890971 -148.97670117 117.09605962 -152.46383476 117.07988358 C-156.25607907 117.06487716 -160.04787826 117.06857649 -163.84013367 117.07673645 C-164.92675079 117.06799793 -166.0133679 117.0592594 -167.13291281 117.05025607 C-182.8666132 117.14127007 -194.52988065 121.41007622 -205.75 132.3125 Z " fill="#E50012" transform="translate(627.375,200.5625)"/>
<path d="M0 0 C1.76950403 -0.00256327 1.76950403 -0.00256327 3.57475561 -0.00517833 C6.8267334 -0.00789051 10.07854942 -0.00168776 13.33050811 0.00837779 C16.84571995 0.01705136 20.36092487 0.01408938 23.87614441 0.01257324 C29.95907418 0.01152685 36.04196089 0.01777767 42.12487984 0.02904892 C50.91964708 0.0453344 59.7143936 0.05051504 68.50917428 0.0530249 C82.77968246 0.05739723 97.05016771 0.07069377 111.32066345 0.08963013 C125.17938625 0.1080009 139.03810281 0.12215154 152.89683533 0.13064575 C154.17919016 0.13143392 154.17919016 0.13143392 155.48745114 0.13223802 C159.77644384 0.13484818 164.06543659 0.13737557 168.35442936 0.13986182 C203.91032907 0.16057992 239.46620215 0.19579284 275.02207947 0.24050903 C274.86855132 1.99037788 274.71343164 3.74010714 274.55764771 5.48977661 C274.47143756 6.46417191 274.38522741 7.4385672 274.29640484 8.44248962 C273.74586515 14.05779497 272.72430595 19.59028646 271.7127533 25.13796997 C271.46091311 26.53812987 271.21772101 27.93987321 270.98326111 29.3430481 C269.44517424 38.54366265 267.19797528 46.31734519 262.02207947 54.24050903 C261.64704285 54.82872437 261.27200623 55.4169397 260.88560486 56.02297974 C257.38679094 60.83049275 252.19986074 63.56765437 247.02207947 66.24050903 C246.49663323 66.57207882 245.971187 66.90364861 245.42981815 67.24526596 C237.36454778 71.70488516 228.21069333 70.76884601 219.28355408 70.6946106 C217.38077315 70.69348117 215.47799049 70.69411783 213.57521057 70.69638062 C208.42905932 70.69752498 203.28328346 70.67406047 198.13721919 70.64608479 C192.75206214 70.62102495 187.36689582 70.61872552 181.98168945 70.61398315 C171.79273268 70.60156685 161.60394825 70.56876339 151.41506726 70.5285852 C139.81171793 70.48382565 128.20836023 70.46186991 116.60494602 70.44180346 C92.74389508 70.40002963 68.88299694 70.32970369 45.02207947 70.24050903 C44.95847984 70.910177 44.89488022 71.57984497 44.82935333 72.26980591 C44.74322029 73.15732544 44.65708725 74.04484497 44.56834412 74.95925903 C44.48411949 75.835177 44.39989487 76.71109497 44.31311798 77.61355591 C43.87936311 81.52868625 43.17338706 85.3744995 42.42832947 89.24050903 C42.27674377 90.04286987 42.12515808 90.84523071 41.96897888 91.67190552 C41.65167771 93.34604696 41.33228574 95.01979342 41.010849 96.69314575 C40.51809313 99.26128497 40.03330981 101.83084172 39.54942322 104.40066528 C39.23869106 106.0348685 38.92750968 107.66898637 38.61582947 109.30300903 C38.47101135 110.07064575 38.32619324 110.83828247 38.17698669 111.62918091 C37.13757595 117.00951607 37.13757595 117.00951607 36.02207947 119.24050903 C93.44207947 119.24050903 150.86207947 119.24050903 210.02207947 119.24050903 C208.69268506 128.54626988 207.32221152 137.76646385 205.5823822 146.99197388 C205.33273377 148.33029876 205.0896218 149.66985862 204.85289001 151.01052856 C202.80554467 162.59297438 199.8691952 174.53733742 189.83457947 181.83035278 C179.30890313 188.55691782 169.53186804 189.68830789 157.20909119 189.67288208 C155.73964625 189.68191526 154.2702088 189.69224626 152.80078125 189.70376587 C148.84073559 189.73117953 144.88083351 189.74059894 140.92070532 189.74661994 C136.77134431 189.75604463 132.62208884 189.78225112 128.47279358 189.80662537 C120.62851094 189.85018195 112.78424891 189.87879532 104.9398824 189.90194875 C96.00384646 189.92905877 87.06791727 189.97296655 78.13195777 190.01823747 C59.76205481 190.11092834 41.39212361 190.18268006 23.02207947 190.24050903 C22.38461373 193.24746341 21.74831064 196.25465619 21.11265564 199.26199341 C20.84469807 200.52508331 20.84469807 200.52508331 20.57132721 201.81369019 C19.03248052 209.10142125 17.6524756 216.40944696 16.33457947 223.74050903 C15.91598306 226.06378269 15.49550448 228.38671825 15.07286072 230.70925903 C14.89408386 231.70377075 14.71530701 232.69828247 14.53111267 233.72293091 C14.02207947 236.24050903 14.02207947 236.24050903 13.02207947 239.24050903 C84.30207947 239.24050903 155.58207947 239.24050903 229.02207947 239.24050903 C227.64532718 248.18939893 226.21527883 257.0828135 224.52745056 265.97146606 C224.27268807 267.32376763 224.02272905 268.67698249 223.77745056 270.03103638 C221.42093087 283.03090991 218.73144134 292.7965891 208.02207947 301.24050903 C201.00232999 305.48977363 194.56577919 308.35618805 186.29617023 308.37473011 C185.36928215 308.37918795 184.44239407 308.3836458 183.48741847 308.38823873 C182.47770258 308.38805437 181.46798669 308.38787 180.42767334 308.38768005 C179.3483155 308.39135674 178.26895766 308.39503343 177.156892 308.39882153 C173.53358054 308.40985054 169.91029777 308.41370089 166.28697205 308.41751099 C163.69165455 308.42377617 161.09633795 308.43042302 158.50102234 308.43742371 C150.70915086 308.45715904 142.91727815 308.46724991 135.12538794 308.4761515 C131.45320666 308.48053859 127.78102681 308.48590425 124.10884666 308.49114037 C111.89737275 308.50814856 99.68589972 308.52264243 87.47441578 308.52988911 C84.3076051 308.53179889 81.14079442 308.53371924 77.97398376 308.53567505 C77.18692146 308.53615879 76.39985916 308.53664253 75.58894648 308.53714093 C62.84075163 308.54544023 50.09265064 308.57077727 37.34449676 308.60325573 C24.24744458 308.63635031 11.15044007 308.65433997 -1.94665414 308.65753335 C-9.29667092 308.65969606 -16.64655076 308.66840981 -23.99652672 308.69399452 C-30.91173279 308.71801082 -37.82668892 308.72151217 -44.7419281 308.71123314 C-47.27751802 308.71073746 -49.81312003 308.71706737 -52.34867287 308.73078918 C-55.81560861 308.74849913 -59.28165951 308.74140528 -62.74859619 308.72825623 C-63.74715848 308.73922547 -64.74572076 308.75019472 -65.77454251 308.76149637 C-73.56450589 308.6903793 -80.26966759 306.93444573 -86.63417053 302.31082153 C-92.44605059 296.17879554 -94.21710171 291.71741302 -94.16981506 283.31716919 C-93.8234539 277.76393332 -92.68624169 272.3432652 -91.57923889 266.90066528 C-91.16790491 264.87772718 -90.76994697 262.85252544 -90.37440491 260.82644653 C-89.24001089 255.09484886 -88.03225306 249.42004971 -86.57148743 243.76239014 C-84.99991935 237.49354558 -83.7526646 231.19669695 -82.5894928 224.84109497 C-82.37114777 223.66535416 -82.15280273 222.48961334 -81.92784119 221.27824402 C-81.33639944 218.09042543 -80.74816712 214.90203411 -80.16109586 211.71340847 C-79.54032398 208.34774837 -78.91447027 204.98303408 -78.28894043 201.61825562 C-76.43346784 191.63249511 -74.58541814 181.64536289 -72.73963928 171.6578064 C-71.30355578 163.88747534 -69.86517666 156.1175841 -68.42002147 148.34893441 C-67.79997957 145.01465591 -67.18188773 141.68004272 -66.5686512 138.34450531 C-64.31138177 126.07953829 -62.03885539 113.89033711 -58.8737793 101.82495117 C-57.41000408 95.9682048 -56.34041083 90.04565085 -55.26971436 84.10652733 C-54.87060622 81.89584427 -54.464042 79.68663721 -54.05567932 77.47764587 C-52.89828375 71.2107615 -51.75236445 64.94181277 -50.614151 58.67141724 C-49.91087757 54.79999269 -49.19821747 50.93038705 -48.4800415 47.06170082 C-48.21177231 45.60613645 -47.94702304 44.14991809 -47.68612671 42.69301414 C-45.24911367 29.08895296 -42.74141485 17.62364683 -31.97792053 8.24050903 C-21.82802079 1.18669382 -12.10194975 -0.06465198 0 0 Z " fill="#E60012" transform="translate(1481.9779205322266,315.7594909667969)"/>
<path d="M0 0 C5.17420559 0.01267309 10.3484146 0.01369071 15.52263331 0.01605082 C25.2789217 0.02221764 35.0351642 0.03856207 44.79143256 0.05874979 C55.91634073 0.08125998 67.04125133 0.09213988 78.16617668 0.10214067 C101.01228012 0.12293371 123.8583431 0.15801425 146.70441127 0.20278788 C146.55273224 1.94469903 146.39912704 3.68644252 146.24472499 5.42811441 C146.15939572 6.39806565 146.07406646 7.36801689 145.98615146 8.36736059 C145.36776434 14.59079539 144.17429515 20.72123418 143.02277064 26.86416483 C142.7272256 28.46476257 142.44238058 30.06737309 142.16827846 31.67178202 C140.46069697 41.65542818 138.62220426 49.40604222 131.70441127 57.20278788 C130.92650233 58.15762064 130.92650233 58.15762064 130.13287807 59.13174295 C124.12799061 65.89869499 115.94520731 70.30060235 106.87467098 70.88314342 C103.14212508 71.0006135 99.41712603 70.98219535 95.68341517 70.94399881 C93.99993906 70.94890504 92.31646895 70.95647296 90.63301539 70.96647501 C87.02999905 70.98217968 83.42767396 70.97920989 79.8246696 70.96123362 C74.1152492 70.93275201 68.40636882 70.94602174 62.69693446 70.96432352 C53.65806136 70.98830344 44.61946114 70.98368611 35.58057988 70.96720099 C19.41247689 70.93864243 3.24439445 70.95900447 -12.92369258 70.98959994 C-18.58656463 70.99918914 -24.24925332 70.99642061 -29.91211605 70.98292446 C-33.44947 70.97605951 -36.98679388 70.977161 -40.52415204 70.97993135 C-42.15019463 70.97942475 -43.77624073 70.97552121 -45.40226483 70.96775103 C-61.12336627 70.89538565 -78.77433912 70.94521889 -91.57293248 81.37856913 C-96.43422706 86.52647064 -99.02518699 93.20720695 -99.42058873 100.23794413 C-99.13264531 104.76405479 -96.79806265 106.73537028 -93.60808873 109.70278788 C-80.8351245 118.07850213 -63.18676891 119.21404344 -48.52019811 121.59609842 C-46.18014067 122.03636513 -43.85831776 122.57727551 -41.55413365 123.17764139 C-36.69297099 124.42039595 -31.78422727 125.06328573 -26.81511998 125.71841288 C-24.75677886 125.99921044 -22.69851339 126.28056301 -20.64031529 126.56240702 C-19.03936009 126.77995142 -19.03936009 126.77995142 -17.40606236 127.00189066 C62.64313058 137.94617413 62.64313058 137.94617413 86.70441127 156.20278788 C87.44948939 156.74677225 88.19456752 157.29075663 88.96222377 157.85122538 C97.69167684 164.39091734 104.69639997 170.83591251 108.70441127 181.20278788 C108.70441127 181.86278788 108.70441127 182.52278788 108.70441127 183.20278788 C109.36441127 183.20278788 110.02441127 183.20278788 110.70441127 183.20278788 C115.17702307 202.2050708 113.76619216 218.31644601 105.70441127 236.20278788 C105.33445033 237.04970194 104.96448939 237.896616 104.58331752 238.76919413 C101.24503132 245.96556888 96.62558294 252.0146946 91.70441127 258.20278788 C91.18491908 258.90145975 90.66542689 259.60013163 90.13019252 260.31997538 C65.49999714 291.47943514 17.84965418 302.10465827 -19.32293248 306.65981913 C-20.98043876 306.84122775 -22.63799555 307.02217508 -24.29558873 307.20278788 C-25.02667757 307.29115632 -25.75776641 307.37952477 -26.51100945 307.47057104 C-35.83766055 308.48031891 -45.16892318 308.33556309 -54.53655553 308.31631327 C-56.46918796 308.31603079 -58.4018205 308.3161903 -60.33445287 308.31675577 C-65.55265283 308.3170414 -70.77082957 308.31118264 -75.98902416 308.30418181 C-81.45293091 308.29790917 -86.91683825 308.29734139 -92.38074803 308.29615641 C-102.71476607 308.29305459 -113.04877345 308.28485676 -123.38278681 308.27480692 C-135.15307045 308.26361 -146.92335461 308.25812632 -158.69364226 308.25311148 C-182.89429697 308.24267314 -207.09494225 308.22509605 -231.29558873 308.20278788 C-230.38386118 302.86618361 -229.45967727 297.53193121 -228.52459264 292.19936991 C-228.20910384 290.39037449 -227.89684645 288.58081207 -227.5880692 286.77065897 C-222.44925551 256.68614776 -222.44925551 256.68614776 -209.29558873 245.20278788 C-202.11341208 240.45524738 -195.68930171 239.08198503 -187.14484715 239.06475687 C-186.43583129 239.06193559 -185.72681542 239.05911431 -184.99631423 239.05620754 C-182.62609052 239.04789058 -180.25591371 239.04652575 -177.88567662 239.04507303 C-176.18353703 239.04040244 -174.48139868 239.03525847 -172.77926183 239.02967691 C-169.11469762 239.01840787 -165.45014149 239.0099677 -161.78556561 239.00355768 C-155.98023658 238.99285384 -150.17496534 238.97260039 -144.36967015 238.95043802 C-127.86152363 238.88860114 -111.35338012 238.83459145 -94.84514928 238.80142069 C-85.72679134 238.78301856 -76.60852999 238.75400999 -67.49024314 238.71341598 C-62.67089426 238.69243403 -57.85166666 238.67690133 -53.03226972 238.67460871 C-48.49069741 238.67244577 -43.94937727 238.65641048 -39.40788198 238.63021898 C-37.75122591 238.62308588 -36.09453909 238.62089552 -34.43787122 238.62432146 C-24.25819215 238.64199272 -15.21112628 237.70206257 -5.29558873 235.20278788 C-3.63098714 234.8592905 -1.9649873 234.52215806 -0.29558873 234.20278788 C-0.29558873 233.54278788 -0.29558873 232.88278788 -0.29558873 232.20278788 C1.06410736 231.27262541 2.46933011 230.40859384 3.89191127 229.57778788 C9.58379682 225.92960296 12.58211399 221.56967971 14.70441127 215.20278788 C15.32536233 207.36453591 15.32536233 207.36453591 12.70441127 200.20278788 C11.05522666 199.49397737 9.38517358 198.83307374 7.70441127 198.20278788 C6.95546596 197.83540506 6.20652064 197.46802225 5.43488002 197.08950663 C-1.17764441 193.97115793 -7.78553721 192.26028311 -14.92058873 190.79263163 C-15.96036366 190.57773081 -17.0001386 190.36282999 -18.07142186 190.14141703 C-31.12045898 187.53027154 -44.29601174 185.82274366 -57.48308873 184.07778788 C-61.2544603 183.57584361 -65.0253918 183.07119863 -68.79542089 182.55926371 C-71.11206843 182.24489242 -73.42947686 181.93605124 -75.74778295 181.63415384 C-82.37994641 180.73674265 -88.83567597 179.48462276 -95.3405869 177.90821695 C-98.24244888 177.21547362 -101.15034888 176.60586454 -104.07683873 176.02700663 C-125.3077644 171.82003283 -145.974609 166.68995105 -165.29558873 156.70278788 C-166.01456334 156.33500223 -166.73353795 155.96721659 -167.47429967 155.58828592 C-171.78602964 153.2896114 -174.96356887 150.84664322 -178.29558873 147.20278788 C-178.98781529 146.53376444 -179.68004186 145.864741 -180.39324498 145.17544413 C-184.24894826 141.42705665 -187.62045909 137.88426475 -190.29558873 133.20278788 C-190.29558873 132.54278788 -190.29558873 131.88278788 -190.29558873 131.20278788 C-190.95558873 131.20278788 -191.61558873 131.20278788 -192.29558873 131.20278788 C-192.94719885 129.32978762 -193.59161068 127.45428238 -194.23308873 125.57778788 C-194.77256139 124.01157694 -194.77256139 124.01157694 -195.32293248 122.41372538 C-199.9824687 107.03164194 -197.7272173 88.38354852 -190.29558873 74.20278788 C-189.87535436 73.28368631 -189.45511998 72.36458475 -189.02215123 71.41763163 C-175.88055909 43.28300756 -152.507082 29.43729465 -125.29558873 17.20278788 C-124.6049735 16.88293924 -123.91435826 16.56309061 -123.20281529 16.23354959 C-85.40869261 -1.19675419 -40.66785479 -0.11675483 0 0 Z " fill="#E60012" transform="translate(1965.2955887317657,315.79721212387085)"/>
<path d="M0 0 C0.92198181 -0.0010675 1.84396362 -0.00213501 2.79388428 -0.00323486 C25.71476804 0.03497902 58.92214604 2.41603221 76.60546875 19.33203125 C77.27191406 20.02683594 77.93835938 20.72164062 78.625 21.4375 C80.46354526 22.97718159 82.31862782 24.4972742 84.1875 26 C90.80827703 31.32716523 90.80827703 31.32716523 92.625 33.4375 C92.625 34.0975 92.625 34.7575 92.625 35.4375 C93.615 35.7675 94.605 36.0975 95.625 36.4375 C107.85038728 51.74949496 114.80063667 72.70396874 114.72265625 92.12109375 C114.72053383 93.17164696 114.72053383 93.17164696 114.71836853 94.24342346 C114.71282477 96.45399466 114.70028326 98.66446004 114.6875 100.875 C114.68247771 102.38476415 114.67791609 103.89452991 114.67382812 105.40429688 C114.66287387 109.08206493 114.6456489 112.75977212 114.625 116.4375 C112.18667234 117.65666383 110.62794309 117.56455244 107.90179729 117.56778526 C106.89913096 117.57140961 105.89646463 117.57503396 104.86341447 117.57876813 C103.19872824 117.57716576 103.19872824 117.57716576 101.50041199 117.57553101 C100.32772886 117.57835229 99.15504573 117.58117357 97.94682676 117.58408034 C94.68138054 117.59099511 91.41596472 117.59345379 88.15051234 117.59413147 C84.63219537 117.59596791 81.11389078 117.60357328 77.59558105 117.61061096 C71.4934778 117.62215028 65.39137732 117.63038779 59.28926659 117.63673019 C49.63669894 117.64705226 39.98416578 117.66761689 30.33161926 117.68984985 C27.02908241 117.69733031 23.72654542 117.70474401 20.42400837 117.71213722 C19.18581151 117.71491307 19.18581151 117.71491307 17.92260056 117.717745 C8.51977419 117.73868447 -0.88305603 117.75750443 -10.28588867 117.77539062 C-11.57550862 117.7778479 -11.57550862 117.7778479 -12.89118149 117.78035481 C-26.80146456 117.80659938 -40.71175028 117.82526377 -54.62204758 117.84198253 C-68.90895153 117.85943082 -83.19580367 117.88830895 -97.48266619 117.9268719 C-106.29025368 117.95022127 -115.09775664 117.96426191 -123.90537532 117.96619953 C-129.95081676 117.96831624 -135.99617439 117.98130652 -142.04157815 118.00267886 C-145.52468482 118.01465336 -149.00762518 118.02189601 -152.49075127 118.01596642 C-156.27854502 118.01205283 -160.06585293 118.02658833 -163.85359192 118.04550171 C-164.9388448 118.03997201 -166.02409768 118.03444232 -167.14223701 118.02874506 C-184.40159489 118.17667715 -195.83711349 123.50938476 -207.9296875 135.4609375 C-213.84439761 142.66063255 -215.42146353 150.12933449 -217.0390625 159.1015625 C-217.27295685 160.34380081 -217.5068512 161.58603912 -217.74783325 162.86592102 C-218.38128048 166.23168494 -218.99994653 169.60000916 -219.61576843 172.9690361 C-220.26024063 176.4804063 -220.91845998 179.98919772 -221.57519531 183.49829102 C-222.78924814 189.99661896 -223.99125394 196.49710808 -225.18809509 202.99862576 C-226.57657287 210.53866408 -227.97962266 218.07596952 -229.3828125 225.61328125 C-231.72737903 238.21881333 -234.05712327 250.82703415 -236.375 263.4375 C-237.035 263.4375 -237.695 263.4375 -238.375 263.4375 C-238.40871201 264.02092163 -238.44242401 264.60434326 -238.47715759 265.20544434 C-239.15699322 274.47111021 -240.94439338 283.48445804 -242.69140625 292.59375 C-243.02781012 294.36879194 -243.36373193 296.1439253 -243.69920349 297.91914368 C-244.40773649 301.66335372 -245.11941139 305.40694634 -245.83374023 309.15005493 C-246.94039097 314.94894434 -248.04021914 320.74911338 -249.13867188 326.54956055 C-250.22287545 332.27328677 -251.30738875 337.99695232 -252.3944397 343.72013855 C-255.08583403 357.89101196 -257.74673243 372.06726701 -260.375 386.25 C-260.69732058 387.98698407 -261.01966639 389.72396346 -261.34204102 391.4609375 C-262.02078222 395.11959064 -262.69840398 398.77844945 -263.375 402.4375 C-264.035 402.4375 -264.695 402.4375 -265.375 402.4375 C-265.44847656 403.47197266 -265.44847656 403.47197266 -265.5234375 404.52734375 C-266.82507452 420.88757452 -266.82507452 420.88757452 -269.375 423.4375 C-275.38620848 423.72117501 -280.87067592 423.02095363 -286.75 421.8125 C-287.61778076 421.63428711 -288.48556152 421.45607422 -289.37963867 421.27246094 C-301.47664003 418.67388654 -312.95692881 414.99649451 -323.9375 409.25 C-324.57534424 408.91709961 -325.21318848 408.58419922 -325.87036133 408.24121094 C-330.24642391 405.82322828 -330.24642391 405.82322828 -331.375 402.4375 C-332.6945405 401.74393306 -334.03108877 401.08257739 -335.375 400.4375 C-340.9413115 395.9120435 -345.93125944 391.05752483 -350.375 385.4375 C-350.99761719 384.8703125 -351.62023437 384.303125 -352.26171875 383.71875 C-367.01927848 367.78822342 -370.09407983 340.08498977 -369.61328125 319.5546875 C-368.18646401 283.10407575 -355.41284763 248.72473098 -336.73681641 217.71630859 C-334.72210942 214.34497926 -332.80009489 210.92300868 -330.875 207.5 C-328.53535887 203.3594509 -326.17464818 199.28701625 -323.375 195.4375 C-322.715 195.4375 -322.055 195.4375 -321.375 195.4375 C-321.313125 194.715625 -321.25125 193.99375 -321.1875 193.25 C-320.11493919 189.5372895 -318.13710101 188.13822099 -315.375 185.4375 C-314.44010278 184.08577728 -313.5363265 182.71225783 -312.65625 181.32421875 C-309.4453717 176.42603404 -305.83596682 171.9718161 -302.0625 167.5 C-300.81473884 166.01311641 -299.56856243 164.52490104 -298.32421875 163.03515625 C-297.78112061 162.39070557 -297.23802246 161.74625488 -296.6784668 161.08227539 C-295.29995379 159.45826789 -295.29995379 159.45826789 -294.375 157.4375 C-293.715 157.4375 -293.055 157.4375 -292.375 157.4375 C-292.10743896 156.848479 -291.83987793 156.25945801 -291.56420898 155.65258789 C-290.35843345 153.40664222 -289.09358408 151.84381734 -287.34765625 149.99609375 C-286.72979248 149.33931641 -286.11192871 148.68253906 -285.4753418 148.00585938 C-284.46661011 146.95108398 -284.46661011 146.95108398 -283.4375 145.875 C-282.7360083 145.13701172 -282.0345166 144.39902344 -281.31176758 143.63867188 C-257.50888995 118.72097262 -257.50888995 118.72097262 -246.9453125 110.515625 C-244.49975253 108.53836375 -242.22785001 106.43924833 -239.95800781 104.2644043 C-232.05965638 96.70834724 -223.42016512 90.35236815 -214.54248047 83.99707031 C-212.60973678 82.60640049 -210.69330775 81.19756206 -208.78515625 79.7734375 C-207.80417969 79.04382813 -206.82320312 78.31421875 -205.8125 77.5625 C-204.98621094 76.94632812 -204.15992188 76.33015625 -203.30859375 75.6953125 C-201.375 74.4375 -201.375 74.4375 -199.375 74.4375 C-199.045 73.4475 -198.715 72.4575 -198.375 71.4375 C-195.92919922 69.67919922 -195.92919922 69.67919922 -192.6796875 67.7421875 C-192.10021866 67.39339035 -191.52074982 67.0445932 -190.92372131 66.68522644 C-189.03741408 65.55249851 -187.14397423 64.4323528 -185.25 63.3125 C-183.95080809 62.5364707 -182.65206163 61.75969517 -181.35375977 60.98217773 C-178.81627238 59.46390655 -176.2761791 57.95015162 -173.73388672 56.43994141 C-171.09397225 54.8661241 -168.4649352 53.27893935 -165.84765625 51.66796875 C-144.50304303 38.53653339 -121.81160512 28.48269725 -98.40942383 19.60302734 C-95.6824564 18.55559453 -92.98408904 17.45692065 -90.28515625 16.33984375 C-84.8983825 14.17841027 -79.40169056 12.55116739 -73.8125 11 C-72.73693848 10.7006958 -71.66137695 10.4013916 -70.55322266 10.09301758 C-62.83735904 7.99679058 -55.08854298 6.19872667 -47.25 4.625 C-46.28118896 4.43043213 -45.31237793 4.23586426 -44.31420898 4.03540039 C-41.33989338 3.46319393 -38.36221019 2.93803538 -35.375 2.4375 C-34.26592285 2.25131104 -33.1568457 2.06512207 -32.01416016 1.87329102 C-21.34145584 0.26061347 -10.77795292 -0.00266021 0 0 Z " fill="#EC6C00" transform="translate(627.375,200.5625)"/>
<path d="M0 0 C36.46431651 -0.90035349 72.49027055 4.08427295 108 12 C108 12.66 108 13.32 108 14 C108.89332031 14.0825 109.78664063 14.165 110.70703125 14.25 C116.56011641 15.09516848 122.0991005 17.12598241 127.6875 19 C129.47812866 19.59905151 129.47812866 19.59905151 131.30493164 20.21020508 C141.87166076 23.82154722 151.95447741 28.14573962 162 33 C163.16917969 33.54527344 164.33835937 34.09054687 165.54296875 34.65234375 C171.12937596 37.32164099 176.18545645 40.31451875 181.18359375 43.96484375 C183.34136975 45.52406885 185.51005759 47.02605734 187.72265625 48.50390625 C203.6432597 59.1625827 217.79723643 71.16656248 229.78515625 86.23046875 C231.24059911 88.05041406 232.72713269 89.84600307 234.24609375 91.61328125 C243.90852489 102.91681855 250.70504321 115.80558621 257.10644531 129.15234375 C257.91283772 130.81976935 258.74772156 132.47334298 259.5859375 134.125 C268.18654408 151.59924828 272.77077326 170.88843555 276 190 C276.16516113 190.97308105 276.33032227 191.94616211 276.50048828 192.94873047 C281.3782563 223.46126275 287.30048916 279.39902168 273 308 C245.28 308 217.56 308 189 308 C190.32 298.76 191.64 289.52 193 280 C196.20079119 244.79129694 196.45914741 208.42828081 182.81640625 175.109375 C182 173 182 173 182 170 C181.34 169.67 180.68 169.34 180 169 C179.02433006 167.44146948 178.11600743 165.84049059 177.2421875 164.22265625 C176.69820312 163.23330078 176.15421875 162.24394531 175.59375 161.22460938 C174.46801138 159.15350617 173.34549097 157.08064972 172.2265625 155.00585938 C168.40994146 148.08154574 164.11203466 142.02354159 159 136 C157.978388 134.75063632 156.95739099 133.50076899 155.9375 132.25 C153.34077865 129.22406851 150.44504352 126.73039153 147.3203125 124.26171875 C146.88460938 123.84535156 146.44890625 123.42898438 146 123 C146 122.34 146 121.68 146 121 C145.13955078 120.61328125 145.13955078 120.61328125 144.26171875 120.21875 C141.79312907 118.88852551 139.93411754 117.33247674 137.8125 115.5 C133.23856641 111.77560831 128.45372613 108.72010588 123.375 105.75 C122.67093018 105.33814453 121.96686035 104.92628906 121.24145508 104.50195312 C116.57815967 101.81700898 111.83207669 99.36717465 107 97 C107 96.34 107 95.68 107 95 C106.20335937 94.74476563 105.40671875 94.48953125 104.5859375 94.2265625 C100.2148511 92.73144144 95.92489978 91.06204202 91.625 89.375 C90.37783203 88.88773438 90.37783203 88.88773438 89.10546875 88.390625 C87.06979076 87.59507268 85.03465416 86.79816631 83 86 C81.26604124 90.77877522 80.23944812 95.48545464 79.34375 100.46875 C79.19595093 101.26728394 79.04815186 102.06581787 78.89587402 102.8885498 C78.4265152 105.42497134 77.96257785 107.96233361 77.5 110.5 C76.89031678 113.84467509 76.27500078 117.18824188 75.65625 120.53125 C75.51973022 121.29078979 75.38321045 122.05032959 75.24255371 122.83288574 C75.10901489 123.55383423 74.97547607 124.27478271 74.83789062 125.01757812 C74.72401001 125.64345825 74.61012939 126.26933838 74.49279785 126.91418457 C74 129 74 129 73.09455872 131.49951172 C71.5053694 136.58186912 70.61729271 141.75866927 69.64916992 146.99023438 C69.42282364 148.19447556 69.19647736 149.39871674 68.96327209 150.63945007 C68.47254046 153.25324688 67.98332956 155.86727501 67.49666405 158.48182678 C66.72265161 162.63943416 65.942153 166.79580811 65.16072083 170.95202637 C63.35793814 180.54590295 61.56351385 190.14133907 59.7692337 199.73680878 C58.13159596 208.49415727 56.49207392 217.25114273 54.84589273 226.00688982 C54.19876666 229.44993497 53.55334333 232.89327939 52.91222191 236.33744812 C50.08053143 251.54733285 47.04738214 266.66817043 43.52298927 281.7328949 C42.3244537 286.92842425 41.25672821 292.15155725 40.1875 297.375 C39.97158203 298.42042969 39.75566406 299.46585938 39.53320312 300.54296875 C39.02018598 303.02825181 38.50906981 305.51390602 38 308 C29.58470337 308.093153 21.1696263 308.16399237 12.75393963 308.20724869 C8.84513169 308.22802168 4.93667946 308.25614768 1.02807617 308.30175781 C-2.75209682 308.34558743 -6.53193016 308.36921422 -10.31233788 308.37950897 C-11.74629237 308.38683447 -13.18023071 308.40113733 -14.61403847 308.42292023 C-26.71183392 308.59921168 -37.28175413 306.91980664 -46.5859375 298.578125 C-51.75303774 293.28499793 -53.99747137 286.8450326 -54.00132751 279.45639038 C-53.19485079 270.03230184 -51.4537648 260.82082814 -49.69140625 251.5390625 C-49.36091714 249.77704345 -49.03084137 248.01494683 -48.70115662 246.2527771 C-48.01316026 242.58266478 -47.32103439 238.91336401 -46.62573242 235.24462891 C-45.73662958 230.55211896 -44.85672594 225.85794092 -43.97972202 221.16315651 C-43.3009018 217.53367936 -42.61788838 213.90500137 -41.93354607 210.27656174 C-41.60748487 208.5456824 -41.28256608 206.81458744 -40.95883369 205.08327103 C-40.50609059 202.66619728 -40.04786025 200.25022675 -39.58813477 197.83447266 C-39.45663528 197.12683777 -39.3251358 196.41920288 -39.18965149 195.69012451 C-38.63402718 192.79672692 -38.0100979 190.0291494 -37.04490662 187.24295044 C-35.46699219 182.34576805 -34.63095495 177.33191412 -33.69335938 172.27832031 C-33.47194778 171.10357147 -33.25053619 169.92882263 -33.02241516 168.71847534 C-32.41815958 165.50807388 -31.81762198 162.29700381 -31.21870613 159.08560276 C-30.58879553 155.71312416 -29.95399783 152.34156575 -29.31970215 148.96990967 C-28.11823013 142.5794354 -26.92093994 136.18818538 -25.72524595 129.79662776 C-23.97491808 120.44138257 -22.21803708 111.08736772 -20.46149445 101.73328781 C-20.20109171 100.34650494 -19.94069282 98.95972134 -19.68029785 97.57293701 C-19.55301568 96.89509934 -19.4257335 96.21726167 -19.29459429 95.51888347 C-18.42233359 90.87281511 -17.55184886 86.22641682 -16.68200684 81.57989502 C-16.44954758 80.33924286 -16.21708832 79.0985907 -15.97758484 77.82034302 C-15.546647 75.52026338 -15.11615807 73.22009957 -14.68623352 70.91983032 C-13.7797869 66.08442558 -12.86416876 61.25092679 -11.91868591 56.42298889 C-11.68896922 55.2487919 -11.68896922 55.2487919 -11.45461178 54.05087376 C-11 52 -11 52 -9.99438477 48.99291992 C-8.59259676 44.77378925 -7.8740496 40.48358057 -7.08984375 36.11328125 C-6.91747696 35.17445602 -6.74511017 34.2356308 -6.56752014 33.26835632 C-6.02009223 30.283801 -5.47841449 27.29824209 -4.9375 24.3125 C-4.39225827 21.31619365 -3.84576293 18.3201297 -3.29676819 15.32450867 C-2.95605631 13.46411029 -2.61762877 11.60329181 -2.28172302 9.74201965 C-2.12808792 8.90072006 -1.97445282 8.05942047 -1.81616211 7.19262695 C-1.68229599 6.45349564 -1.54842987 5.71436432 -1.4105072 4.95283508 C-1 3 -1 3 0 0 Z " fill="#E60012" transform="translate(1051,316)"/>
<path d="M0 0 C1.18546175 -0.00256327 2.37092351 -0.00512655 3.59230834 -0.0077675 C6.85124499 -0.01182699 10.10981593 -0.00255722 13.36870944 0.01256669 C16.89479233 0.02560351 20.42086022 0.02113222 23.94696045 0.01885986 C30.04570167 0.01729193 36.1443461 0.0266507 42.24306297 0.04357338 C51.0606103 0.06802424 59.87811115 0.07577485 68.6956887 0.07953735 C83.00392413 0.08609232 97.31210806 0.10602749 111.62031555 0.13444519 C125.51386763 0.16201053 139.40740569 0.18323198 153.30097961 0.19596863 C154.58702677 0.19715088 154.58702677 0.19715088 155.89905467 0.19835702 C160.20049012 0.20227233 164.50192568 0.2060634 168.8033613 0.20979273 C204.45014642 0.24085889 240.09687173 0.29366859 275.74360657 0.36076355 C275.59196598 1.77407145 275.43875802 3.18721122 275.28491211 4.60028076 C275.19976695 5.38724114 275.11462179 6.17420153 275.02689648 6.98500919 C274.31077143 12.99064917 273.12431096 18.92990079 272.0070343 24.8712616 C271.70703207 26.48594605 271.4153235 28.10219404 271.1320343 29.71989441 C268.87872096 42.5704347 265.6454546 54.07768685 254.74360657 62.36076355 C246.01821133 67.68346798 239.75757078 70.52175001 229.5785675 70.47428894 C228.75868347 70.47443497 227.93879944 70.47458099 227.09407043 70.47473145 C224.38868041 70.47403573 221.68335954 70.46625927 218.97798157 70.4584198 C217.10039813 70.45655441 215.2228142 70.45513108 213.3452301 70.45413208 C208.40671949 70.45031644 203.46823836 70.44049426 198.52973938 70.4294281 C193.48905333 70.41919351 188.44836251 70.41463007 183.40766907 70.40959167 C173.51963529 70.39887116 163.63162338 70.38180615 153.74360657 70.36076355 C153.59332253 71.40908859 153.59332253 71.40908859 153.44000244 72.47859192 C151.87423667 83.03973129 149.90433571 93.51730649 147.93501282 104.00920105 C147.56375988 105.99490019 147.19266402 107.98062871 146.82171631 109.96638489 C146.04720288 114.11012928 145.27131876 118.25361373 144.49433899 122.39689636 C143.50613633 127.66673489 142.52057333 132.93706257 141.53595066 138.20757103 C140.77057343 142.30360927 140.00418081 146.399457 139.23745537 150.49524307 C138.87408609 152.43656559 138.51092731 154.37792751 138.1479969 156.31933212 C132.46103159 186.72588434 132.46103159 186.72588434 130.24555969 195.28996277 C128.54954867 201.89870465 127.32100018 208.57746833 126.11056519 215.28758621 C125.70181585 217.55196936 125.28775546 219.81532798 124.87239075 222.07850647 C123.69415712 228.50380115 122.5257156 234.93086758 121.35932922 241.35832214 C120.64089322 245.31526316 119.91691159 249.27115949 119.18978882 253.22651291 C118.91654175 254.71945144 118.64543917 256.21278432 118.37664795 257.70653152 C115.20374734 275.33904924 111.73374084 289.16251235 96.74360657 300.36076355 C93.5123433 302.37277686 90.30005217 304.00733842 86.74360657 305.36076355 C86.11245941 305.60841965 85.48131226 305.85607574 84.83103943 306.11123657 C76.99307734 308.84750803 69.29888892 308.74523763 61.11079407 308.6537323 C59.62293428 308.64812495 58.13506889 308.64386025 56.64720154 308.64086914 C52.76407611 308.6295098 48.88129665 308.60012156 44.99830627 308.5667572 C41.02282895 308.53586209 37.04729478 308.52232261 33.07173157 308.50724792 C25.29553356 308.47524148 17.51961886 308.42415574 9.74360657 308.36076355 C10.90039685 299.90863853 12.18623592 291.51064532 13.80220032 283.13420105 C13.99201981 282.13925629 14.18183929 281.14431152 14.37741089 280.11921692 C14.7749616 278.04024346 15.17413539 275.96157975 15.5749054 273.88322449 C16.18105225 270.73604555 16.78003631 267.58756073 17.37837219 264.43888855 C17.76922009 262.39974394 18.16048213 260.36067866 18.55220032 258.32170105 C18.81485939 256.93838089 18.81485939 256.93838089 19.08282471 255.52711487 C19.98221162 250.88836966 20.99175461 246.30755016 22.17575073 241.73269653 C23.65866433 235.84022941 24.86241775 229.92918813 25.96430969 223.95524597 C26.16475388 222.88518814 26.36519806 221.81513031 26.57171631 220.71264648 C27.22616035 217.21446653 27.87550669 213.7153611 28.52485657 210.2162323 C28.98386139 207.75818533 29.44321807 205.30020404 29.90290833 202.84228516 C30.98558529 197.04928058 32.06516692 191.25570645 33.14307261 185.46181232 C35.18371193 174.49395879 37.23209806 163.52754997 39.27996826 152.56104469 C39.94742291 148.98377036 40.61330872 145.40620702 41.27888489 141.82858276 C44.11963864 126.57318901 46.97794551 111.42340777 50.74360657 96.36076355 C53.21860657 83.49076355 53.21860657 83.49076355 55.74360657 70.36076355 C20.43360657 70.36076355 -14.87639343 70.36076355 -51.25639343 70.36076355 C-51.25639343 62.48066586 -51.25639343 62.48066586 -50.69316101 59.32829285 C-50.56915421 58.62033066 -50.4451474 57.91236847 -50.31738281 57.18295288 C-50.11123604 56.07020744 -50.11123604 56.07020744 -49.90092468 54.9349823 C-49.75741074 54.14735001 -49.61389679 53.35971771 -49.46603394 52.54821777 C-49.1608936 50.88947702 -48.85226563 49.23137442 -48.54032898 47.57389832 C-48.07268359 45.06856869 -47.62804595 42.55984376 -47.18412781 40.05021667 C-44.97320639 27.97879287 -42.11665068 16.35938092 -31.88139343 8.54826355 C-21.78088511 1.66155333 -12.07555102 -0.09693842 0 0 Z " fill="#E60012" transform="translate(2188.256393432617,315.6392364501953)"/>
<path d="M0 0 C1.28087494 0.00007553 2.56174988 0.00015106 3.88143921 0.00022888 C5.26422159 0.00533434 6.64700358 0.01055031 8.02978516 0.01586914 C9.45610504 0.01773622 10.88242558 0.01915875 12.30874634 0.02015686 C16.04711708 0.02395924 19.78544844 0.03376987 23.52380371 0.04486084 C27.34480253 0.05512415 31.16580776 0.05966499 34.98681641 0.06469727 C42.47251136 0.07539436 49.95817397 0.09244316 57.44384766 0.11352539 C56.16636173 8.71171049 54.73109143 17.26504891 53.13134766 25.80883789 C52.80976685 27.53999344 52.80976685 27.53999344 52.48168945 29.30612183 C51.80428764 32.95060893 51.12415411 36.5945795 50.44384766 40.23852539 C49.76417198 43.88972764 49.08505649 47.54103376 48.40600586 51.19235229 C47.98576925 53.45084772 47.56506508 55.70925622 47.14379883 57.96755981 C46.95019775 59.00588959 46.75659668 60.04421936 46.55712891 61.11401367 C46.36973145 62.11482971 46.18233398 63.11564575 45.98925781 64.14678955 C45.62354086 66.13609168 45.26916673 68.1275103 44.92578125 70.12078857 C44.76029785 71.07600403 44.59481445 72.03121948 44.42431641 73.01538086 C44.28276123 73.85455048 44.14120605 74.69372009 43.99536133 75.55831909 C43.44384766 78.11352539 43.44384766 78.11352539 42.49981689 80.84185791 C41.14841565 85.02885062 40.36551949 89.23656327 39.56787109 93.55834961 C39.39189896 94.49293503 39.21592682 95.42752045 39.03462219 96.39042664 C38.45349085 99.48228719 37.87834608 102.57522965 37.30322266 105.66821289 C36.89483816 107.84749126 36.48607902 110.02669946 36.07696533 112.20584106 C34.99711008 117.96321586 33.92230896 123.72152301 32.84857178 129.4800415 C31.77783855 135.21780213 30.7024553 140.95469054 29.62744141 146.69165039 C25.29292844 169.7927868 25.29292844 169.7927868 21.0076561 192.90308189 C20.45254285 195.91946081 19.89466356 198.9353248 19.33652496 201.95114517 C18.97337256 203.92094258 18.61485897 205.89159348 18.25653076 207.86227417 C18.04280823 209.01655914 17.82908569 210.17084412 17.60888672 211.36010742 C17.43004944 212.33754913 17.25121216 213.31499084 17.06695557 214.322052 C16.39347444 217.33919336 15.42478834 220.18346277 14.44384766 223.11352539 C14.04716669 224.87105122 13.68673384 226.63713758 13.36230469 228.40942383 C13.175159 229.41777283 12.98801331 230.42612183 12.79519653 231.46502686 C12.59932953 232.54012512 12.40346252 233.61522339 12.20166016 234.72290039 C11.77101636 237.02765253 11.34001552 239.33233797 10.90869141 241.63696289 C10.23759311 245.24785409 9.56963077 248.85924806 8.90820312 252.47192383 C8.26514771 255.97401416 7.60924687 259.47351359 6.95166016 262.97290039 C6.75984161 264.03990173 6.56802307 265.10690308 6.37039185 266.20623779 C3.62742995 280.68257654 -1.13522541 291.37953873 -13.28271484 300.06274414 C-21.84954313 305.4297905 -30.19039025 308.24604095 -40.27416992 308.22705078 C-41.25549896 308.22726982 -41.25549896 308.22726982 -42.25665283 308.22749329 C-44.4046976 308.22680033 -46.5526541 308.21903703 -48.70068359 308.21118164 C-50.19569349 308.20931527 -51.690704 308.2078924 -53.18571472 308.20689392 C-57.10987045 308.20308603 -61.03398885 308.19327057 -64.95812988 308.18218994 C-68.96671036 308.1719386 -72.9752969 308.16738833 -76.98388672 308.16235352 C-84.84132568 308.15164669 -92.69873436 308.13459111 -100.55615234 308.11352539 C-100.23981063 305.87709593 -99.92258211 303.6407919 -99.60498047 301.40454102 C-99.42841919 300.15918579 -99.25185791 298.91383057 -99.06994629 297.6307373 C-98.48170207 293.60387093 -97.80415323 289.61370405 -97.05615234 285.61352539 C-96.81896484 284.32446289 -96.58177734 283.03540039 -96.33740234 281.70727539 C-95.55615234 278.11352539 -95.55615234 278.11352539 -94.59765625 275.33117676 C-93.49150959 271.91381625 -92.77763892 268.56654635 -92.11083984 265.03735352 C-91.98011739 264.35166825 -91.84939493 263.66598299 -91.71471119 262.95951939 C-91.28285624 260.68867628 -90.85696166 258.41675923 -90.43115234 256.14477539 C-90.1250659 254.52788547 -89.81863639 252.91106047 -89.5118866 251.29429626 C-88.69136334 246.96368354 -87.87610673 242.6320944 -87.0618248 238.30030441 C-86.38772263 234.71861126 -85.71013406 231.13758162 -85.03247738 227.55655956 C-81.78697665 210.4042847 -78.56802469 193.24727405 -75.41162109 176.07836914 C-75.17879425 174.8133255 -74.94596741 173.54828186 -74.70608521 172.24490356 C-73.6392789 166.44325454 -72.578119 160.64066733 -71.52685547 154.83618164 C-71.15518447 152.80231399 -70.78344429 150.76845898 -70.41162109 148.73461914 C-70.25082565 147.83517075 -70.09003021 146.93572235 -69.92436218 146.00901794 C-69.77215714 145.18039749 -69.61995209 144.35177704 -69.46313477 143.49804688 C-69.27118782 142.43649635 -69.27118782 142.43649635 -69.07536316 141.35350037 C-68.55615234 139.11352539 -68.55615234 139.11352539 -67.59475708 136.31051636 C-66.4451067 132.7717092 -65.7058641 129.22789076 -65.03149414 125.57714844 C-64.89292999 124.84589752 -64.75436584 124.11464661 -64.61160278 123.36123657 C-64.15564848 120.94995221 -63.70554911 118.53761297 -63.25537109 116.12524414 C-62.93430737 114.42243468 -62.61283266 112.71970267 -62.29096985 111.01704407 C-61.44266928 106.52448376 -60.59912802 102.03104372 -59.75683594 97.53735352 C-58.91671591 93.0577792 -58.07351564 88.57878582 -57.22998047 84.09985352 C-57.06573137 83.22769258 -56.90148228 82.35553165 -56.73225594 81.4569416 C-55.29947849 73.85257334 -53.86059508 66.24937185 -52.41644287 58.64715576 C-51.86886666 55.76455902 -51.3238683 52.88150099 -50.78179932 49.99786377 C-50.11787665 46.47863748 -49.44272373 42.96179503 -48.76318359 39.44555664 C-48.48748787 37.96680305 -48.48748787 37.96680305 -48.20622253 36.45817566 C-47.24645708 31.56526827 -46.08521161 27.48486765 -43.55615234 23.11352539 C-42.89615234 23.11352539 -42.23615234 23.11352539 -41.55615234 23.11352539 C-41.28931641 22.53344727 -41.02248047 21.95336914 -40.74755859 21.35571289 C-35.32976955 11.15961153 -25.78077591 5.57905989 -15.23193359 1.87524414 C-10.1399713 0.42570743 -5.28215541 -0.01043904 0 0 Z " fill="#E60012" transform="translate(945.55615234375,315.886474609375)"/>
<path d="M0 0 C54.12 0 108.24 0 164 0 C162.91182218 11.96995602 162.91182218 11.96995602 161 18 C160.53206925 20.15431798 160.09222991 22.31489712 159.67822266 24.48022461 C159.31547745 26.3652066 159.31547745 26.3652066 158.94540405 28.28826904 C158.68486897 29.65961058 158.42442468 31.03096937 158.1640625 32.40234375 C157.88587655 33.8553735 157.60743796 35.30835491 157.32876587 36.7612915 C156.57926679 40.67370698 155.83388177 44.58689624 155.08924866 48.50024033 C154.46863519 51.75839982 153.84525741 55.0160279 153.22190094 58.27366352 C149.93358203 75.46147769 146.6809816 92.65572151 143.4765625 109.859375 C143.1983536 111.35148991 142.92012506 112.84360116 142.64187622 114.33570862 C141.45720619 120.69119271 140.27481455 127.04705753 139.10381889 133.40507698 C138.51493152 136.59743263 137.92097566 139.78884712 137.328125 142.98046875 C137.01652939 144.68641205 137.01652939 144.68641205 136.69863892 146.42681885 C135.76404448 151.43832564 134.74184649 156.19469621 133 161 C132.68339153 162.35473965 132.39533539 163.71677649 132.1484375 165.0859375 C131.95507812 166.13974609 131.95507812 166.13974609 131.7578125 167.21484375 C131.63148438 167.92769531 131.50515625 168.64054688 131.375 169.375 C131.2409375 170.11105469 131.106875 170.84710938 130.96875 171.60546875 C130.64193673 173.40294172 130.32041989 175.20137633 130 177 C129.01 177 128.02 177 127 177 C126.7980603 175.98522583 126.7980603 175.98522583 126.59204102 174.94995117 C121.98601562 152.1836812 116.36850983 129.4293678 105.06542969 108.96484375 C103.88592472 106.78962469 102.77282765 104.58708182 101.6640625 102.375 C94.85800496 88.90117533 86.90569771 76.49107299 77.33984375 64.796875 C75.96000221 62.94635865 74.96711445 61.09155853 74 59 C73.34 59 72.68 59 72 59 C70.58984375 57.56640625 70.58984375 57.56640625 68.9375 55.5625 C65.42929345 51.41038212 61.64549595 47.64192767 57.72265625 43.8828125 C56 42 56 42 56 40 C55.34 40 54.68 40 54 40 C52.83880551 38.84737521 51.68214838 37.68984663 50.54785156 36.51074219 C47.56180506 33.59628545 44.19492511 31.14341139 40.875 28.625 C39.74276001 27.76237549 39.74276001 27.76237549 38.58764648 26.88232422 C33.69063703 23.1861721 28.71102461 19.74287702 23.47265625 16.54296875 C20.9010888 14.93827816 18.45786894 13.21070435 16 11.4375 C10.91060649 7.82092133 5.53571897 4.87310129 0 2 C0 1.34 0 0.68 0 0 Z " fill="#E60012" transform="translate(1234,316)"/>
</svg>
