<?xml version="1.0" encoding="UTF-8"?>
<svg version="1.1" xmlns="http://www.w3.org/2000/svg" width="392" height="72">
<path d="M0 0 C3.99623151 3.68280159 6.72863596 7.03723851 7.23828125 12.6015625 C7.40731091 19.48729711 7.08520826 25.25339785 3 31 C-2.44546231 36.28630475 -8.15174892 39.27459697 -15.8125 39.375 C-21.38580444 39.2721715 -25.50468464 38.35519915 -30 35 C-32.63120799 32.23030738 -34.45144277 29.48425378 -36 26 C-36.350625 26.86625 -36.70125 27.7325 -37.0625 28.625 C-39.56644437 32.98670955 -42.9942453 36.9607432 -47.88671875 38.65234375 C-54.56102073 39.75033428 -61.30923456 40.02517556 -67 36 C-70.89943785 31.88978173 -72.05675527 29.23409377 -71.9140625 23.6171875 C-71.77097656 21.76480469 -71.77097656 21.76480469 -71.625 19.875 C-71.48964844 18.01488281 -71.48964844 18.01488281 -71.3515625 16.1171875 C-71 13 -71 13 -70 11 C-73.63 11 -77.26 11 -81 11 C-81.12117188 12.02738281 -81.24234375 13.05476563 -81.3671875 14.11328125 C-82.33118131 22.13557182 -83.45680336 30.06356016 -85 38 C-90.28 38 -95.56 38 -101 38 C-100.35712167 34.06199646 -99.71083254 30.12460591 -99.0625 26.1875 C-98.88009766 25.06794922 -98.69769531 23.94839844 -98.50976562 22.79492188 C-98.33251953 21.72177734 -98.15527344 20.64863281 -97.97265625 19.54296875 C-97.81031494 18.55321045 -97.64797363 17.56345215 -97.48071289 16.54370117 C-97 14 -97 14 -96 11 C-98.64 11 -101.28 11 -104 11 C-103.34 6.71 -102.68 2.42 -102 -2 C-97.09330556 -2.30003306 -92.19209384 -2.5158374 -87.27832031 -2.65917969 C-85.613311 -2.71898883 -83.94891734 -2.8004844 -82.28613281 -2.90527344 C-74.01944169 -3.41261549 -66.94047728 -3.76026773 -60.41534424 1.94354248 C-54.24660623 8.05402502 -54.24660623 8.05402502 -53.73284912 12.10809326 C-53.80623213 16.5844566 -54.7163903 20.72908046 -56 25 C-54.68 25 -53.36 25 -52 25 C-50.35 16.09 -48.7 7.18 -47 -2 C-41.72 -2 -36.44 -2 -31 -2 C-31.33 0.64 -31.66 3.28 -32 6 C-31.278125 5.236875 -30.55625 4.47375 -29.8125 3.6875 C-21.84803754 -3.92298636 -9.72487107 -5.97652676 0 0 Z M-19.375 13.6875 C-21.16982516 15.89015223 -21.16982516 15.89015223 -21.4375 18.5625 C-21.15485315 20.99926829 -21.15485315 20.99926829 -19.875 22.8125 C-17.08666183 24.57844751 -15.23271032 24.46181576 -12 24 C-9.16828758 21.98799381 -8.15012137 20.87928233 -7.5625 17.4375 C-7.84514685 15.00073171 -7.84514685 15.00073171 -9.125 13.1875 C-12.79798021 10.8612792 -15.90995947 11.22549752 -19.375 13.6875 Z " fill="#185E9E" transform="translate(168,17)"/>
<path d="M0 0 C3.52067351 -0.08782542 7.04106144 -0.14066643 10.5625 -0.1875 C11.55314453 -0.21263672 12.54378906 -0.23777344 13.56445312 -0.26367188 C20.32870438 -0.33108966 25.63618796 0.07022822 30.9375 4.6875 C31.4634375 5.3371875 31.4634375 5.3371875 32 6 C32.66 4.02 33.32 2.04 34 0 C39.395571 2.33890578 43.39179002 6.43312335 47 11 C47.625 14.5 47.625 14.5 47 18 C46.82572555 19.64504515 46.65926227 21.29093367 46.5 22.9375 C46.33717258 24.29213367 46.17187498 25.64648453 46 27 C47.32 27 48.64 27 50 27 C51.65 18.09 53.3 9.18 55 0 C60.28 0 65.56 0 71 0 C70.37478069 4.02292751 69.74063942 8.04285894 69.08349609 12.06054688 C68.86303702 13.42526276 68.64777393 14.79082925 68.43798828 16.15722656 C68.13408204 18.13045664 67.80940211 20.10045125 67.484375 22.0703125 C67.20158691 23.84559326 67.20158691 23.84559326 66.91308594 25.65673828 C65.13219187 32.17747715 61.29009622 36.14263817 56 40 C50.14905251 41.9626596 43.33241041 41.80574178 37.5625 39.8125 C31.79727685 35.73465924 30.35589886 31.66650274 29 25 C28.0925 25.474375 27.185 25.94875 26.25 26.4375 C21.07506744 28.69953238 15.57202682 28.73466539 10 29 C9.90912109 29.93972656 9.90912109 29.93972656 9.81640625 30.8984375 C9.73261719 31.71570313 9.64882812 32.53296875 9.5625 33.375 C9.48128906 34.18710937 9.40007812 34.99921875 9.31640625 35.8359375 C9 38 9 38 8 40 C3.05 40 -1.9 40 -7 40 C-6.16702142 34.78504464 -5.33076291 29.57062992 -4.49145508 24.35668945 C-4.2063715 22.58274594 -3.9221861 20.80865783 -3.63891602 19.03442383 C-3.23168992 16.48480334 -2.82124082 13.93571959 -2.41015625 11.38671875 C-2.28407486 10.59287277 -2.15799347 9.79902679 -2.02809143 8.98112488 C-1.52655462 5.88731531 -0.99302842 2.97908525 0 0 Z M13 11 C13 12.98 13 14.96 13 17 C14.65 16.67 16.3 16.34 18 16 C18 14.68 18 13.36 18 12 C16.35 11.67 14.7 11.34 13 11 Z " fill="#185E9E" transform="translate(186,15)"/>
<path d="M0 0 C3.3 0 6.6 0 10 0 C10 1.32 10 2.64 10 4 C12.97 4.495 12.97 4.495 16 5 C16.33 3.68 16.66 2.36 17 1 C29.21 1 41.42 1 54 1 C53.67 2.65 53.34 4.3 53 6 C47.06 6.33 41.12 6.66 35 7 C33.68 9.64 32.36 12.28 31 15 C36.61 15 42.22 15 48 15 C47.52546943 20.50455456 46.73097593 25.88529093 45.6875 31.3125 C45.46449219 32.48425781 45.24148438 33.65601563 45.01171875 34.86328125 C43.86860338 38.40738024 42.88577964 39.69525395 40 42 C37.34277344 42.45410156 37.34277344 42.45410156 34.359375 42.390625 C32.75449219 42.37128906 32.75449219 42.37128906 31.1171875 42.3515625 C30.00601563 42.31804688 28.89484375 42.28453125 27.75 42.25 C26.06003906 42.22292969 26.06003906 42.22292969 24.3359375 42.1953125 C21.55643104 42.14820222 18.7786466 42.08243361 16 42 C16.33 40.35 16.66 38.7 17 37 C15.87851562 37.54140625 15.87851562 37.54140625 14.734375 38.09375 C13.74953125 38.5578125 12.7646875 39.021875 11.75 39.5 C10.77546875 39.9640625 9.8009375 40.428125 8.796875 40.90625 C6 42 6 42 2 42 C1.77539062 39.65673828 1.77539062 39.65673828 2 37 C3.52148438 35.65185547 3.52148438 35.65185547 5.59375 34.4921875 C11.50813452 30.42148458 13.66836884 24.52506431 16.5 18.125 C17.03625 16.9596875 17.5725 15.794375 18.125 14.59375 C19.43613599 11.7373466 20.72686203 8.87349025 22 6 C20.35 6 18.7 6 17 6 C16.67 7.65 16.34 9.3 16 11 C13.36 11 10.72 11 8 11 C8 12.65 8 14.3 8 16 C8.763125 15.67 9.52625 15.34 10.3125 15 C13 14 13 14 16 14 C15.4375 16.75 15.4375 16.75 14 20 C12.23208712 20.93217225 10.46219353 21.86172256 8.66796875 22.7421875 C5.92354026 24.81175653 5.60123547 27.61604979 4.71875 30.8203125 C3.33978283 35.00218035 0.60929312 37.1104998 -3.1484375 39.1875 C-7.132279 41.09339095 -10.4926823 42.58158938 -15 42 C-14.04949793 37.81779089 -13.4294113 36.30917613 -9.875 33.75 C-8.451875 32.88375 -8.451875 32.88375 -7 32 C-7 31.34 -7 30.68 -7 30 C-8.65 30 -10.3 30 -12 30 C-11.67 27.69 -11.34 25.38 -11 23 C-10.05125 22.855625 -9.1025 22.71125 -8.125 22.5625 C-4.87141432 21.37038249 -4.87141432 21.37038249 -4.15625 18.86328125 C-3.66828424 16.57773573 -3.27688708 14.3201228 -3 12 C-5.97 11.505 -5.97 11.505 -9 11 C-8.67 9.02 -8.34 7.04 -8 5 C-5.69 5 -3.38 5 -1 5 C-0.67 3.35 -0.34 1.7 0 0 Z M31 20 C30.49622232 22.26999825 29.99709981 24.54103003 29.5 26.8125 C29.2215625 28.07707031 28.943125 29.34164062 28.65625 30.64453125 C27.90403008 33.92086334 27.90403008 33.92086334 28 37 C29.65 36.67 31.3 36.34 33 36 C34.92471317 30.66164461 36.39891424 25.65020618 37 20 C35.02 20 33.04 20 31 20 Z " fill="#185E9E" transform="translate(274,14)"/>
<path d="M0 0 C6.08496025 5.35293496 9.49459775 11.0217878 10.3125 19.078125 C10.65042644 28.15989796 8.83083433 34.52721932 3.375 41.75 C-1.48693456 46.92560776 -6.77277562 49.71696722 -13.875 50.33984375 C-18.70663628 50.44716188 -23.38222394 50.53925869 -28 49 C-26.48472002 43.59806968 -23.9419495 39.195032 -21.0625 34.4375 C-20.61970703 33.69564453 -20.17691406 32.95378906 -19.72070312 32.18945312 C-17.91131743 29.1612264 -16.09224263 26.14590011 -14.20703125 23.1640625 C-12.57861175 20.24450133 -12.57976295 18.2918569 -13 15 C-14.77984405 11.8640843 -15.52308207 11.15897264 -19 10 C-20.77166975 9.85164052 -22.54767612 9.75229982 -24.32421875 9.68359375 C-25.35224609 9.64169922 -26.38027344 9.59980469 -27.43945312 9.55664062 C-29.04723633 9.49766602 -29.04723633 9.49766602 -30.6875 9.4375 C-31.77095703 9.39431641 -32.85441406 9.35113281 -33.97070312 9.30664062 C-36.64700791 9.20053162 -39.32340526 9.09847639 -42 9 C-39.23195245 3.06127981 -34.68143861 -0.83150539 -29 -4 C-18.79524994 -7.6501606 -8.9139131 -6.04231694 0 0 Z M-10 9 C-9.34 11.64 -8.68 14.28 -8 17 C-5.03 17 -2.06 17 1 17 C2.32 14.36 3.64 11.72 5 9 C0.05 9 -4.9 9 -10 9 Z " fill="#185E9E" transform="translate(46,6)"/>
<path d="M0 0 C2.08268593 -0.08126087 4.16628658 -0.13930839 6.25 -0.1875 C7.99023438 -0.23970703 7.99023438 -0.23970703 9.765625 -0.29296875 C13.33257304 0.03012437 14.30767489 0.80646354 17 3 C19.18324189 3.469719 19.18324189 3.469719 21.4375 3.375 C22.54931641 3.38660156 22.54931641 3.38660156 23.68359375 3.3984375 C26.13042296 3.13216952 26.13042296 3.13216952 28.359375 1.48828125 C31.70860215 -0.39937488 33.99796425 -0.30309199 37.8125 -0.1875 C39.55466797 -0.14689453 39.55466797 -0.14689453 41.33203125 -0.10546875 C42.21246094 -0.07066406 43.09289062 -0.03585937 44 0 C44 0.66 44 1.32 44 2 C43.34 2.33 42.68 2.66 42 3 C43.98 3.33 45.96 3.66 48 4 C48 5.65 48 7.3 48 9 C43.38 9 38.76 9 34 9 C34 9.66 34 10.32 34 11 C34.66 10.67 35.32 10.34 36 10 C37.87379605 9.92966231 39.75001102 9.9156978 41.625 9.9375 C43.12933594 9.95103516 43.12933594 9.95103516 44.6640625 9.96484375 C45.43492187 9.97644531 46.20578125 9.98804688 47 10 C47 10.66 47 11.32 47 12 C45.25 13.2890625 45.25 13.2890625 43 14.625 C42.2575 15.07101563 41.515 15.51703125 40.75 15.9765625 C39.88375 16.48316406 39.88375 16.48316406 39 17 C41.97 17.33 44.94 17.66 48 18 C48 19.65 48 21.3 48 23 C28.2 23 8.4 23 -12 23 C-12 21.35 -12 19.7 -12 18 C-8.37 17.67 -4.74 17.34 -1 17 C-1.825 16.21625 -2.65 15.4325 -3.5 14.625 C-6 12 -6 12 -6 10 C-4.18757948 9.97312721 -2.37504767 9.95366285 -0.5625 9.9375 C0.44683594 9.92589844 1.45617187 9.91429687 2.49609375 9.90234375 C5 10 5 10 6 11 C6.33 10.34 6.66 9.68 7 9 C2.71 9 -1.58 9 -6 9 C-5.67 7.35 -5.34 5.7 -5 4 C-3.02 3.67 -1.04 3.34 1 3 C0.67 2.01 0.34 1.02 0 0 Z M18 9 C17.67 11.97 17.34 14.94 17 18 C18.32 18 19.64 18 21 18 C21.33 15.03 21.66 12.06 22 9 C20.68 9 19.36 9 18 9 Z " fill="#185E9E" transform="translate(344,14)"/>
<path d="M0 0 C15.84 0 31.68 0 48 0 C46.85490196 12.59607843 46.85490196 12.59607843 44 16 C40.86469771 18.09020153 40.1816823 18.2474595 36.62036133 18.22705078 C35.73967484 18.22689972 34.85898834 18.22674866 33.95161438 18.22659302 C33.00465195 18.21627045 32.05768951 18.20594788 31.08203125 18.1953125 C30.10965012 18.1924826 29.13726898 18.18965271 28.13542175 18.18673706 C25.02765634 18.17553599 21.92017841 18.15043148 18.8125 18.125 C16.70638437 18.11497011 14.60026422 18.10584427 12.49414062 18.09765625 C7.3293162 18.07559688 2.16470685 18.04106746 -3 18 C-2.88399745 16.31185763 -2.75668975 14.62449113 -2.625 12.9375 C-2.55539062 11.99777344 -2.48578125 11.05804688 -2.4140625 10.08984375 C-2 7 -2 7 0 0 Z M11 5 C11 5.33 11 5.66 11 6 C18.92 6 26.84 6 35 6 C35 5.67 35 5.34 35 5 C27.08 5 19.16 5 11 5 Z M10 11 C10 11.66 10 12.32 10 13 C17.59 13 25.18 13 33 13 C33.33 12.34 33.66 11.68 34 11 C26.08 11 18.16 11 10 11 Z " fill="#185E9E" transform="translate(338,38)"/>
<path d="M0 0 C0.9583374 0.00523682 1.9166748 0.01047363 2.90405273 0.01586914 C4.45576172 0.02070313 4.45576172 0.02070313 6.03881836 0.02563477 C7.12743164 0.03401367 8.21604492 0.04239258 9.33764648 0.05102539 C10.97636719 0.05779297 10.97636719 0.05779297 12.64819336 0.06469727 C15.35723144 0.07652713 18.06616248 0.09300996 20.77514648 0.11352539 C21.88854193 2.8672668 21.86823336 3.89237302 20.6953125 6.67895508 C20.14544678 7.62158203 19.59558105 8.56420898 19.02905273 9.53540039 C18.43930664 10.56020508 17.84956055 11.58500977 17.24194336 12.64086914 C16.61352539 13.7043457 15.98510742 14.76782227 15.33764648 15.86352539 C14.40082031 17.48194336 14.40082031 17.48194336 13.44506836 19.13305664 C11.8993001 21.79980189 10.34239241 24.45936451 8.77514648 27.11352539 C3.97337074 24.921632 1.03454384 21.77225314 -1.20922852 17.03540039 C-3.15836169 11.77641844 -3.8741602 6.70755221 -3.22485352 1.11352539 C-2.22485352 0.11352539 -2.22485352 0.11352539 0 0 Z " fill="#185E9E" transform="translate(3.224853515625,22.886474609375)"/>
<path d="M0 0 C1.9375 0.3359375 1.9375 0.3359375 4.9375 2.3359375 C6.09176305 6.41433362 6.38681249 8.45603388 4.4375 12.2734375 C1.9375 14.3359375 1.9375 14.3359375 -1.5625 14.8984375 C-5.0625 14.3359375 -5.0625 14.3359375 -7.5 12.7109375 C-9.52182313 9.63776635 -9.59005517 7.95345869 -9.0625 4.3359375 C-7.14512782 -0.21782144 -4.46542624 -0.08457247 0 0 Z M-6.0625 3.3359375 C-6.3925 3.6659375 -6.7225 3.9959375 -7.0625 4.3359375 C-6.77519945 6.67538486 -6.44313221 9.0098518 -6.0625 11.3359375 C-5.7325 11.3359375 -5.4025 11.3359375 -5.0625 11.3359375 C-5.0625 8.6959375 -5.0625 6.0559375 -5.0625 3.3359375 C-5.3925 3.3359375 -5.7225 3.3359375 -6.0625 3.3359375 Z M1.9375 3.3359375 C1.25791397 5.73313182 1.25791397 5.73313182 0.9375 8.3359375 C1.5975 8.9959375 2.2575 9.6559375 2.9375 10.3359375 C3.61708603 7.93874318 3.61708603 7.93874318 3.9375 5.3359375 C3.2775 4.6759375 2.6175 4.0159375 1.9375 3.3359375 Z M-3.0625 4.3359375 C-3.0625 4.9959375 -3.0625 5.6559375 -3.0625 6.3359375 C-2.0725 6.3359375 -1.0825 6.3359375 -0.0625 6.3359375 C-0.0625 5.6759375 -0.0625 5.0159375 -0.0625 4.3359375 C-1.0525 4.3359375 -2.0425 4.3359375 -3.0625 4.3359375 Z M-3.0625 8.3359375 C-3.3925 9.6559375 -3.7225 10.9759375 -4.0625 12.3359375 C-2.4125 12.3359375 -0.7625 12.3359375 0.9375 12.3359375 C0.2775 11.0159375 -0.3825 9.6959375 -1.0625 8.3359375 C-1.7225 8.3359375 -2.3825 8.3359375 -3.0625 8.3359375 Z " fill="#185E9E" transform="translate(64.0625,0.6640625)"/>
</svg>
